<svg id="email" xmlns="http://www.w3.org/2000/svg" width="157.219" height="108.088" viewBox="0 0 157.219 108.088">
  <g id="Group_2" data-name="Group 2" transform="translate(104.217 19.928)">
    <g id="Group_1" data-name="Group 1">
      <path id="Path_1" data-name="Path 1" d="M339.392,179.818l53,33.507V144.9Z" transform="translate(-339.392 -144.896)" fill="#fff"/>
    </g>
  </g>
  <g id="Group_4" data-name="Group 4" transform="translate(0 19.928)">
    <g id="Group_3" data-name="Group 3">
      <path id="Path_2" data-name="Path 2" d="M0,144.9v68.43l53-33.507Z" transform="translate(0 -144.896)" fill="#fff"/>
    </g>
  </g>
  <g id="Group_6" data-name="Group 6" transform="translate(0.295 0)">
    <g id="Group_5" data-name="Group 5">
      <path id="Path_3" data-name="Path 3" d="M148.058,80H10.491A9.7,9.7,0,0,0,.96,88.362l78.315,51.6,78.315-51.6A9.7,9.7,0,0,0,148.058,80Z" transform="translate(-0.96 -80)" fill="#fff"/>
    </g>
  </g>
  <g id="Group_8" data-name="Group 8" transform="translate(0.314 60.775)">
    <g id="Group_7" data-name="Group 7">
      <path id="Path_4" data-name="Path 4" d="M95.926,277.93l-13.9,9.158a4.934,4.934,0,0,1-5.4,0l-13.9-9.168L1.024,316.94a9.689,9.689,0,0,0,9.512,8.293H148.1a9.689,9.689,0,0,0,9.512-8.293Z" transform="translate(-1.024 -277.92)" fill="#fff"/>
    </g>
  </g>
</svg>
