<svg xmlns="http://www.w3.org/2000/svg" width="512" height="479.372" viewBox="0 0 512 479.372">
  <g id="gift" transform="translate(0 -16.314)">
    <g id="Group_22" data-name="Group 22">
      <path id="Path_41" data-name="Path 41" d="M480,143.686H378.752a124.331,124.331,0,0,0,17.856-14.3,66.945,66.945,0,0,0,0-94.144c-25.056-25.216-68.768-25.248-93.856,0-13.856,13.92-50.688,70.592-45.6,108.448h-2.3c5.056-37.856-31.744-94.528-45.6-108.448-25.088-25.248-68.8-25.216-93.856,0a66.974,66.974,0,0,0-.032,94.144,126.634,126.634,0,0,0,17.888,14.3H32a32.053,32.053,0,0,0-32,32v80a16.006,16.006,0,0,0,16,16H32v192a32.053,32.053,0,0,0,32,32H448a32.053,32.053,0,0,0,32-32v-192h16a16.006,16.006,0,0,0,16-16v-80A32.053,32.053,0,0,0,480,143.686ZM138.08,57.8a34.109,34.109,0,0,1,48.48,0c21.568,21.7,43.008,77.12,35.552,84.832,0,0-1.344,1.056-5.92,1.056-22.112,0-64.32-22.976-78.112-36.864A34.9,34.9,0,0,1,138.08,57.8ZM240,463.686H64v-192H240Zm0-224H32v-64H240ZM325.44,57.8c12.992-13.024,35.52-12.992,48.48,0a34.9,34.9,0,0,1,0,49.024c-13.792,13.888-56,36.864-78.112,36.864-4.576,0-5.92-1.024-5.952-1.056C282.432,134.918,303.872,79.494,325.44,57.8ZM448,463.686H272v-192H448Zm32-224H272v-64H480Z" fill="#eee"/>
    </g>
  </g>
</svg>
