<svg xmlns="http://www.w3.org/2000/svg" width="512.002" height="486.65" viewBox="0 0 512.002 486.65">
  <g id="home" transform="translate(0 -12.676)">
    <g id="Group_12" data-name="Group 12">
      <g id="Group_11" data-name="Group 11">
        <path id="Path_10" data-name="Path 10" d="M503.4,228.885,273.684,19.567a26.135,26.135,0,0,0-35.367,0L8.6,228.886a26.255,26.255,0,0,0,17.685,45.661h36.69V484.268A15.058,15.058,0,0,0,78.03,499.325H203.944A15.057,15.057,0,0,0,219,484.268V356.932h74V484.269a15.058,15.058,0,0,0,15.057,15.057H433.968a15.057,15.057,0,0,0,15.057-15.057V274.547h36.7a26.253,26.253,0,0,0,17.68-45.662Z" fill="#fff"/>
      </g>
    </g>
    <g id="Group_14" data-name="Group 14">
      <g id="Group_13" data-name="Group 13">
        <path id="Path_11" data-name="Path 11" d="M445.092,42.73H343.973L460.149,148.366V57.786A15.056,15.056,0,0,0,445.092,42.73Z" fill="#fff"/>
      </g>
    </g>
  </g>
</svg>
