<svg id="instagram" xmlns="http://www.w3.org/2000/svg" width="157.158" height="157.188" viewBox="0 0 157.158 157.188">
  <path id="Path_5" data-name="Path 5" d="M157.208,46.214a57.437,57.437,0,0,0-3.654-19.069,40.266,40.266,0,0,0-23-23A57.585,57.585,0,0,0,111.485.492C103.071.092,100.4,0,79.058,0s-24.013.092-32.4.461A57.454,57.454,0,0,0,27.594,4.114,38.353,38.353,0,0,0,13.653,13.2a38.7,38.7,0,0,0-9.059,13.91A57.591,57.591,0,0,0,.94,46.183C.541,54.6.449,57.268.449,78.61s.092,24.013.461,32.4a57.434,57.434,0,0,0,3.655,19.069,40.26,40.26,0,0,0,23,23,57.593,57.593,0,0,0,19.069,3.654c8.382.369,11.054.461,32.4.461s24.013-.091,32.4-.461a57.423,57.423,0,0,0,19.068-3.654,40.206,40.206,0,0,0,23-23,57.63,57.63,0,0,0,3.654-19.069c.368-8.383.461-11.054.461-32.4s-.031-24.013-.4-32.4Zm-14.155,64.177c-.338,7.677-1.628,11.822-2.7,14.586A26.075,26.075,0,0,1,125.426,139.9c-2.764,1.075-6.939,2.364-14.586,2.7-8.291.369-10.777.461-31.75.461s-23.491-.091-31.752-.461c-7.677-.337-11.822-1.627-14.586-2.7a24.188,24.188,0,0,1-9.027-5.866,24.438,24.438,0,0,1-5.866-9.027c-1.075-2.764-2.364-6.94-2.7-14.586-.369-8.291-.461-10.779-.461-31.752s.091-23.491.461-31.75c.337-7.677,1.627-11.822,2.7-14.586a23.892,23.892,0,0,1,5.9-9.029,24.4,24.4,0,0,1,9.027-5.864c2.764-1.075,6.94-2.364,14.586-2.7,8.291-.368,10.779-.461,31.75-.461,21,0,23.491.092,31.752.461,7.677.338,11.822,1.628,14.586,2.7a24.17,24.17,0,0,1,9.027,5.864,24.433,24.433,0,0,1,5.866,9.029c1.075,2.764,2.364,6.939,2.7,14.586.368,8.291.461,10.777.461,31.75s-.092,23.43-.461,31.721Zm0,0" transform="translate(-0.449 0)" fill="#fff"/>
  <path id="Path_6" data-name="Path 6" d="M165.329,124.5a40.38,40.38,0,1,0,40.38,40.38A40.39,40.39,0,0,0,165.329,124.5Zm0,66.573a26.193,26.193,0,1,1,26.193-26.193A26.2,26.2,0,0,1,165.329,191.073Zm0,0" transform="translate(-86.719 -86.27)" fill="#fff"/>
  <path id="Path_7" data-name="Path 7" d="M381.3,98.029a9.427,9.427,0,1,1-9.428-9.427,9.428,9.428,0,0,1,9.428,9.427Zm0,0" transform="translate(-251.29 -61.395)" fill="#fff"/>
</svg>
