<svg xmlns="http://www.w3.org/2000/svg" width="480" height="479.998" viewBox="0 0 480 479.998">
  <g id="location" transform="translate(-16 -16.002)">
    <path id="Path_12" data-name="Path 12" d="M495.439,440a28,28,0,0,0-1.3-13.318c-.076-.215-.161-.427-.255-.634l-35.933-79.464A18.03,18.03,0,0,0,441.547,336H440v16h1.547a2,2,0,0,1,1.822,1.176l35.776,79.115A12,12,0,0,1,467.732,448H44.268a12,12,0,0,1-11.413-15.709L56.819,379.3,42.24,372.7,18.119,426.048c-.094.207-.179.419-.255.634A28,28,0,0,0,16.561,440H16v28a28.032,28.032,0,0,0,28,28H424V480H44a12.013,12.013,0,0,1-12-12v-6.837A27.982,27.982,0,0,0,44.268,464H467.732A27.983,27.983,0,0,0,480,461.163V468a12.013,12.013,0,0,1-12,12H440v16h28a28.032,28.032,0,0,0,28-28V440Z" fill="#fff"/>
    <path id="Path_13" data-name="Path 13" d="M160,160h16v88H160Z" fill="#fff"/>
    <path id="Path_14" data-name="Path 14" d="M192,128h16v16H192Z" fill="#fff"/>
    <path id="Path_15" data-name="Path 15" d="M192,160h16v16H192Z" fill="#fff"/>
    <path id="Path_16" data-name="Path 16" d="M192,192h16v16H192Z" fill="#fff"/>
    <path id="Path_17" data-name="Path 17" d="M192,224h16v16H192Z" fill="#fff"/>
    <path id="Path_18" data-name="Path 18" d="M384,128h16v16H384Z" fill="#fff"/>
    <path id="Path_19" data-name="Path 19" d="M384,160h16v16H384Z" fill="#fff"/>
    <path id="Path_20" data-name="Path 20" d="M384,192h16v16H384Z" fill="#fff"/>
    <path id="Path_21" data-name="Path 21" d="M384,224h16v16H384Z" fill="#fff"/>
    <path id="Path_22" data-name="Path 22" d="M256,360h16v24H256Z" fill="#fff"/>
    <path id="Path_23" data-name="Path 23" d="M320,360h16v24H320Z" fill="#fff"/>
    <path id="Path_24" data-name="Path 24" d="M256,192h16v16H256Z" fill="#fff"/>
    <path id="Path_25" data-name="Path 25" d="M288,192h16v16H288Z" fill="#fff"/>
    <path id="Path_26" data-name="Path 26" d="M320,192h16v16H320Z" fill="#fff"/>
    <path id="Path_27" data-name="Path 27" d="M256,152h16v16H256Z" fill="#fff"/>
    <path id="Path_28" data-name="Path 28" d="M288,152h16v16H288Z" fill="#fff"/>
    <path id="Path_29" data-name="Path 29" d="M320,152h16v16H320Z" fill="#fff"/>
    <path id="Path_30" data-name="Path 30" d="M256,112h16v16H256Z" fill="#fff"/>
    <path id="Path_31" data-name="Path 31" d="M288,112h16v16H288Z" fill="#fff"/>
    <path id="Path_32" data-name="Path 32" d="M320,112h16v16H320Z" fill="#fff"/>
    <path id="Path_33" data-name="Path 33" d="M256,72h16V88H256Z" fill="#fff"/>
    <path id="Path_34" data-name="Path 34" d="M288,72h16V88H288Z" fill="#fff"/>
    <path id="Path_35" data-name="Path 35" d="M320,72h16V88H320Z" fill="#fff"/>
    <path id="Path_36" data-name="Path 36" d="M114.732,430.021a8,8,0,0,0,10.536,0A300.2,300.2,0,0,0,158.247,395C180.644,367,192,341.769,192,320h14.776l-13.714,96H176v-8H160v16a8,8,0,0,0,8,8H424a8,8,0,0,0,8-8V320h8a8,8,0,0,0,8-8V272a8,8,0,0,0-8-8h-8V104a8,8,0,0,0-5.19-7.49L368,74.456V48a8,8,0,0,0-8-8H345.889L299.578,16.845a8,8,0,0,0-7.694.3L253.784,40H232a8,8,0,0,0-8,8V74.456L165.191,96.51A8,8,0,0,0,160,104v40h16V109.544l48-18V264H165.207A71.965,71.965,0,0,0,48,320c0,21.769,11.356,47,33.753,75a300.2,300.2,0,0,0,32.979,35.021ZM222.938,320H288v96H209.224ZM304,416V320h65.062l13.714,96Zm112,0H398.938l-13.714-96H416Zm16-112H190.208a71.64,71.64,0,0,0-10.368-24H432ZM265.012,264a32.005,32.005,0,0,1,61.976,0ZM416,109.544V264H368V91.544ZM240,56h16a8.009,8.009,0,0,0,4.116-1.14L296.35,33.119l44.072,22.036A7.994,7.994,0,0,0,344,56h8V264h-8.667a48.005,48.005,0,0,0-94.666,0H240ZM120,264a56.063,56.063,0,0,1,56,56c0,17.74-10.4,40.15-30.091,64.807A297.66,297.66,0,0,1,120,413.091,297.248,297.248,0,0,1,94.247,385C74.459,360.268,64,337.79,64,320a56.063,56.063,0,0,1,56-56Z" fill="#fff"/>
    <path id="Path_37" data-name="Path 37" d="M120,352a32,32,0,1,0-32-32,32,32,0,0,0,32,32Zm0-48a16,16,0,1,1-16,16,16,16,0,0,1,16-16Z" fill="#fff"/>
  </g>
</svg>
