<svg id="phone-call" xmlns="http://www.w3.org/2000/svg" width="157.392" height="157.723" viewBox="0 0 157.392 157.723">
  <g id="Group_9" data-name="Group 9" transform="translate(0 0)">
    <path id="Path_8" data-name="Path 8" d="M153.8,115.753,131.793,93.742c-7.861-7.861-21.225-4.716-24.369,5.5-2.358,7.075-10.219,11.006-17.294,9.433C74.408,104.747,53.183,84.309,49.253,67.8c-2.358-7.075,2.358-14.936,9.433-17.294C68.905,47.362,72.05,34,64.189,26.138L42.178,4.127c-6.289-5.5-15.722-5.5-21.225,0L6.018,19.063C-8.918,34.785,7.59,76.448,44.536,113.395s78.61,54.241,94.332,38.519L153.8,136.977C159.307,130.689,159.307,121.255,153.8,115.753Z" transform="translate(-0.539 0)" fill="#fff"/>
  </g>
</svg>
