<svg id="pinterest" xmlns="http://www.w3.org/2000/svg" width="127.731" height="157.212" viewBox="0 0 127.731 157.212">
  <g id="Group_10" data-name="Group 10" transform="translate(0)">
    <path id="Path_9" data-name="Path 9" d="M114.007,0C70.919,0,48,27.612,48,57.719c0,13.963,7.8,31.375,20.291,36.9,1.9.855,2.928.491,3.351-1.268.373-1.336,2.014-7.773,2.81-10.809a2.779,2.779,0,0,0-.668-2.732c-4.147-4.8-7.438-13.531-7.438-21.726,0-21,16.695-41.388,45.1-41.388,24.566,0,41.752,15.958,41.752,38.784,0,25.794-13.649,43.638-31.385,43.638-9.816,0-17.127-7.7-14.808-17.235,2.8-11.349,8.293-23.553,8.293-31.739,0-7.34-4.147-13.413-12.617-13.413-9.993,0-18.1,9.895-18.1,23.18a33.048,33.048,0,0,0,2.987,14.14s-9.885,39.934-11.723,47.392c-3.105,12.627.423,33.075.727,34.834a1.036,1.036,0,0,0,1.887.481c.973-1.277,12.921-18.326,16.272-30.648,1.218-4.491,6.22-22.7,6.22-22.7,3.292,5.945,12.794,10.927,22.915,10.927,30.108,0,51.863-26.462,51.863-59.3C175.627,23.553,148.683,0,114.007,0Z" transform="translate(-48.004)" fill="#fff"/>
  </g>
</svg>
