<svg xmlns="http://www.w3.org/2000/svg" width="150.666" height="123.828" viewBox="0 0 150.666 123.828">
  <path id="twitter" d="M149.8,58.819a3.275,3.275,0,0,0-3.93-.694,27.977,27.977,0,0,1-4.186,1.513,29.476,29.476,0,0,0,4.979-9.584,3.275,3.275,0,0,0-5.044-3.524,68.845,68.845,0,0,1-15.761,6.164,32.964,32.964,0,0,0-41.3-3.19A32.505,32.505,0,0,0,70.4,79.539,77.562,77.562,0,0,1,16.086,50.283,3.387,3.387,0,0,0,13.3,49.058a3.275,3.275,0,0,0-2.62,1.6A31.7,31.7,0,0,0,7.065,75.268a35.05,35.05,0,0,0,5.693,11.9A17.391,17.391,0,0,1,9.43,85.042a3.276,3.276,0,0,0-5.339,2.542,33.874,33.874,0,0,0,17.451,29.086,24.289,24.289,0,0,1-4.219-.9,3.275,3.275,0,0,0-3.93,4.481,35.746,35.746,0,0,0,24.815,20.307,57.712,57.712,0,0,1-34.555,7.114,3.229,3.229,0,0,0-3.492,2.24,3.276,3.276,0,0,0,1.507,3.865,98.163,98.163,0,0,0,48.41,13.757,83.143,83.143,0,0,0,45.947-14.051c25.961-17.229,42.141-48.162,39.888-75.839A61.187,61.187,0,0,0,150.155,62.8,3.276,3.276,0,0,0,149.8,58.819Z" transform="translate(0 -43.702)" fill="#fff"/>
</svg>
